<svg width="24.000000" height="24.000000" viewBox="0 0 24 24" fill="none" xmlns="http://www.w3.org/2000/svg" xmlns:xlink="http://www.w3.org/1999/xlink">
	<desc>
			Created with Pixso.
	</desc>
	<defs/>
	<path id="Vector" d="M2.43 20.89C2.64 21.66 3.2 22.26 3.98 22.42C5.36 22.7 7.89 23 11.95 23C16.01 23 18.55 22.7 19.93 22.42C20.71 22.26 21.27 21.66 21.48 20.89C22.47 17.21 22.84 12.58 22.93 10.24C22.95 9.69 22.5 9.25 21.95 9.25L1.95 9.25C1.4 9.25 0.95 9.69 0.97 10.24C1.06 12.58 1.43 17.21 2.43 20.89ZM5.54 9.25L5.54 6C5.54 3.23 7.77 1 10.54 1L13.37 1C16.13 1 18.37 3.23 18.37 6L18.37 9.25M8.29 14.75L8.29 17.5M15.62 14.75L15.62 17.5" stroke="#FFFFFF" stroke-opacity="1.000000" stroke-width="1.500000" stroke-linejoin="round" stroke-linecap="round"/>
</svg>
