<svg width="24.000000" height="24.000000" viewBox="0 0 24 24" fill="none" xmlns="http://www.w3.org/2000/svg" xmlns:xlink="http://www.w3.org/1999/xlink">
	<desc>
			Created with Pixso.
	</desc>
	<defs>
		<clipPath id="clip1615_27570">
			<rect id="Icon / Outlined / Heart" rx="0.000000" width="23.000000" height="23.000000" transform="translate(0.500000 0.500000)" fill="white" fill-opacity="0"/>
		</clipPath>
	</defs>
	<g clip-path="url(#clip1615_27570)">
		<path id="Vector" d="M21.59 6.61C21.27 5.88 20.82 5.22 20.26 4.66C19.7 4.1 19.03 3.66 18.3 3.35C17.54 3.04 16.73 2.87 15.91 2.87C14.76 2.87 13.64 3.19 12.66 3.79C12.43 3.94 12.21 4.1 12 4.27C11.79 4.1 11.56 3.94 11.33 3.79C10.36 3.19 9.23 2.87 8.08 2.87C7.25 2.87 6.45 3.04 5.69 3.35C4.96 3.66 4.3 4.1 3.73 4.66C3.17 5.22 2.72 5.88 2.41 6.61C2.08 7.37 1.91 8.18 1.91 9.01C1.91 9.8 2.07 10.62 2.39 11.45C2.65 12.14 3.03 12.87 3.51 13.59C4.28 14.75 5.33 15.95 6.64 17.17C8.8 19.19 10.95 20.58 11.04 20.64L11.59 21C11.84 21.15 12.15 21.15 12.4 21L12.95 20.64C13.04 20.58 15.18 19.19 17.35 17.17C18.66 15.95 19.71 14.75 20.48 13.59C20.96 12.87 21.34 12.14 21.6 11.45C21.92 10.62 22.08 9.8 22.08 9.01C22.08 8.18 21.91 7.37 21.59 6.61ZM12 19.13C12 19.13 3.69 13.76 3.69 9.01C3.69 6.61 5.66 4.67 8.08 4.67C9.79 4.67 11.27 5.63 12 7.03C12.72 5.63 14.2 4.67 15.91 4.67C18.34 4.67 20.3 6.61 20.3 9.01C20.3 13.76 12 19.13 12 19.13Z" fill="#FFFFFF" fill-opacity="1.000000" fill-rule="nonzero"/>
	</g>
</svg>
