<svg width="28.000000" height="28.000000" viewBox="0 0 28 28" fill="none" xmlns="http://www.w3.org/2000/svg" xmlns:xlink="http://www.w3.org/1999/xlink">
	<desc>
			Created with Pixso.
	</desc>
	<defs>
		<clipPath id="clip6_36838">
			<rect id="coffee-cup 1" rx="0.000000" width="27.000000" height="27.000000" transform="translate(0.500000 0.500000)" fill="white" fill-opacity="0"/>
		</clipPath>
	</defs>
	<rect id="coffee-cup 1" rx="0.000000" width="27.000000" height="27.000000" transform="translate(0.500000 0.500000)" fill="#FFFFFF" fill-opacity="0"/>
	<g clip-path="url(#clip6_36838)">
		<path id="Vector" d="M15.55 -0.03C17.01 -0.03 18.47 -0.03 19.93 -0.03C20.2 0.06 20.43 0.22 20.61 0.46C20.98 1.12 21.32 1.79 21.62 2.48C19.62 2.49 17.61 2.48 15.61 2.46C16.36 2.14 16.65 1.59 16.46 0.79C16.28 0.37 15.98 0.1 15.55 -0.03Z" fill="#1E0F13" fill-opacity="1.000000" fill-rule="evenodd"/>
		<g opacity="0.988000">
			<path id="Vector" d="M6.37 2.48C6.65 2.54 6.94 2.56 7.24 2.54C6.89 2.7 6.63 2.96 6.45 3.3C6.39 3.87 6.36 4.45 6.37 5.03C6.36 5.62 6.39 6.21 6.45 6.8C6.59 7.18 6.86 7.43 7.24 7.54C6.5 7.55 5.77 7.58 5.05 7.62C4.43 7.59 4.02 7.28 3.82 6.69C3.77 5.54 3.79 4.39 3.88 3.25C4.04 2.93 4.28 2.7 4.62 2.57C5.2 2.49 5.78 2.46 6.37 2.48Z" fill="#A35D54" fill-opacity="1.000000" fill-rule="evenodd"/>
		</g>
		<path id="Vector" d="M7.24 2.54C8.04 2.42 8.57 2.73 8.85 3.47C8.89 4.51 8.89 5.55 8.85 6.58C8.76 7.1 8.46 7.42 7.95 7.54C10.84 7.55 13.72 7.58 16.59 7.62C12.75 7.62 8.9 7.62 5.05 7.62C5.77 7.58 6.5 7.55 7.24 7.54C6.86 7.43 6.59 7.18 6.45 6.8C6.39 6.21 6.36 5.62 6.37 5.03C6.36 4.45 6.39 3.87 6.45 3.3C6.63 2.96 6.89 2.7 7.24 2.54Z" fill="#FEDCB9" fill-opacity="1.000000" fill-rule="evenodd"/>
		<path id="Vector" d="M6.37 2.48C9.34 2.47 12.31 2.48 15.28 2.51C15.87 2.52 16.45 2.55 17.03 2.62C17.39 2.8 17.64 3.08 17.77 3.47C17.8 4.52 17.8 5.58 17.77 6.64C17.64 7.12 17.34 7.42 16.87 7.54C18.9 7.55 20.92 7.58 22.94 7.62C21.28 7.62 19.62 7.62 17.96 7.62C17.5 7.62 17.05 7.62 16.59 7.62C13.72 7.58 10.84 7.55 7.95 7.54C8.46 7.42 8.76 7.1 8.85 6.58C8.89 5.55 8.89 4.51 8.85 3.47C8.57 2.73 8.04 2.42 7.24 2.54C6.94 2.56 6.65 2.54 6.37 2.48Z" fill="#A35D54" fill-opacity="1.000000" fill-rule="evenodd"/>
		<path id="Vector" d="M8.01 -0.03C10.52 -0.03 13.04 -0.03 15.55 -0.03C15.98 0.1 16.28 0.37 16.46 0.79C16.65 1.59 16.36 2.14 15.61 2.46C17.61 2.48 19.62 2.49 21.62 2.48C22.13 2.47 22.65 2.48 23.16 2.51C23.6 2.63 23.92 2.89 24.11 3.3C24.2 4.41 24.22 5.52 24.17 6.64C23.98 7.25 23.57 7.58 22.94 7.62C20.92 7.58 18.9 7.55 16.87 7.54C17.34 7.42 17.64 7.12 17.77 6.64C17.8 5.58 17.8 4.52 17.77 3.47C17.64 3.08 17.39 2.8 17.03 2.62C16.45 2.55 15.87 2.52 15.28 2.51C12.31 2.48 9.34 2.47 6.37 2.48C6.69 1.74 7.06 1.02 7.46 0.32C7.64 0.19 7.82 0.07 8.01 -0.03Z" fill="#914C47" fill-opacity="1.000000" fill-rule="evenodd"/>
		<g opacity="0.998000">
			<path id="Vector" d="M5.05 7.62C8.9 7.62 12.75 7.62 16.59 7.62C17.05 7.62 17.5 7.62 17.96 7.62C18.72 7.93 19.02 8.5 18.86 9.32C18.77 10.01 18.69 10.7 18.62 11.4C14.26 11.4 9.9 11.4 5.55 11.4C5.37 10.14 5.2 8.89 5.05 7.62Z" fill="#FEDCB9" fill-opacity="1.000000" fill-rule="evenodd"/>
		</g>
		<path id="Vector" d="M17.96 7.62C19.62 7.62 21.28 7.62 22.94 7.62C22.77 8.88 22.6 10.14 22.44 11.4C21.17 11.4 19.89 11.4 18.62 11.4C18.69 10.7 18.77 10.01 18.86 9.32C19.02 8.5 18.72 7.93 17.96 7.62Z" fill="#F6CBAF" fill-opacity="1.000000" fill-rule="evenodd"/>
		<g opacity="0.997000">
			<path id="Vector" d="M5.55 11.4C9.9 11.4 14.26 11.4 18.62 11.4C19.89 11.4 21.17 11.4 22.44 11.4C20.9 11.45 19.35 11.47 17.8 11.45C17.35 14.82 16.93 18.19 16.54 21.57C18.1 21.55 19.65 21.57 21.19 21.62C19.89 21.62 18.6 21.62 17.3 21.62C13.8 21.62 10.3 21.62 6.8 21.62C6.64 21.62 6.48 21.62 6.31 21.62C5.9 18.21 5.48 14.81 5.05 11.4C5.22 11.4 5.38 11.4 5.55 11.4Z" fill="#EAB477" fill-opacity="1.000000" fill-rule="evenodd"/>
		</g>
		<path id="Vector" d="M22.44 11.4C22.61 11.4 22.77 11.4 22.94 11.4C22.49 14.8 22.08 18.21 21.68 21.62C21.51 21.62 21.35 21.62 21.19 21.62C19.65 21.57 18.1 21.55 16.54 21.57C16.93 18.19 17.35 14.82 17.8 11.45C19.35 11.47 20.9 11.45 22.44 11.4Z" fill="#CC9D69" fill-opacity="1.000000" fill-rule="evenodd"/>
		<g opacity="0.997000">
			<path id="Vector" d="M6.8 21.62C10.3 21.62 13.8 21.62 17.3 21.62C17.1 23.36 16.89 25.09 16.67 26.82C16.56 27.38 16.24 27.76 15.72 27.97C13.27 27.97 10.83 27.97 8.39 27.97C8.02 27.82 7.73 27.57 7.54 27.2C7.27 25.35 7.02 23.49 6.8 21.62Z" fill="#FEDCB9" fill-opacity="1.000000" fill-rule="evenodd"/>
		</g>
		<path id="Vector" d="M17.3 21.62C18.6 21.62 19.89 21.62 21.19 21.62C20.95 23.39 20.73 25.16 20.5 26.93C20.38 27.44 20.08 27.79 19.6 27.97C18.31 27.97 17.01 27.97 15.72 27.97C16.24 27.76 16.56 27.38 16.67 26.82C16.89 25.09 17.1 23.36 17.3 21.62Z" fill="#F6CBAF" fill-opacity="1.000000" fill-rule="evenodd"/>
	</g>
</svg>
