<svg width="23.457245" height="23.499992" viewBox="0 0 23.4572 23.5" fill="none" xmlns="http://www.w3.org/2000/svg" xmlns:xlink="http://www.w3.org/1999/xlink">
	<desc>
			Created with Pixso.
	</desc>
	<defs/>
	<path id="Vector" d="M2.2 20.64C2.41 21.41 2.97 22.01 3.75 22.17C5.13 22.45 7.67 22.75 11.72 22.75C15.78 22.75 18.32 22.45 19.7 22.17C20.48 22.01 21.04 21.41 21.25 20.64C22.24 16.96 22.61 12.33 22.7 9.99C22.72 9.44 22.28 9 21.72 9L1.72 9C1.17 9 0.73 9.44 0.75 9.99C0.83 12.33 1.2 16.96 2.2 20.64ZM5.31 9L5.31 5.75C5.31 2.98 7.55 0.75 10.31 0.75L13.14 0.75C15.9 0.75 18.14 2.98 18.14 5.75L18.14 9M8.06 14.5L8.06 17.25M15.39 14.5L15.39 17.25" stroke="#505050" stroke-opacity="1.000000" stroke-width="1.500000" stroke-linejoin="round" stroke-linecap="round"/>
</svg>
