<svg width="48.000000" height="48.000000" viewBox="0 0 48 48" fill="none" xmlns="http://www.w3.org/2000/svg" xmlns:xlink="http://www.w3.org/1999/xlink">
	<desc>
			Created with Pixso.
	</desc>
	<defs>
		<clipPath id="clip36_34986">
			<rect id="coffee-cup 1" rx="0.000000" width="47.000000" height="47.000000" transform="translate(0.500000 0.500000)" fill="white" fill-opacity="0"/>
		</clipPath>
	</defs>
	<rect id="coffee-cup 1" rx="0.000000" width="47.000000" height="47.000000" transform="translate(0.500000 0.500000)" fill="#FFFFFF" fill-opacity="0"/>
	<g clip-path="url(#clip36_34986)">
		<path id="Vector" d="M26.67 -0.05C29.17 -0.05 31.67 -0.05 34.17 -0.05C34.64 0.1 35.03 0.38 35.34 0.79C35.97 1.92 36.55 3.08 37.07 4.26C33.64 4.28 30.2 4.26 26.76 4.21C28.05 3.67 28.54 2.72 28.21 1.35C27.91 0.64 27.4 0.17 26.67 -0.05Z" fill="#1E0F13" fill-opacity="1.000000" fill-rule="evenodd"/>
		<g opacity="0.988000">
			<path id="Vector" d="M10.92 4.26C11.4 4.35 11.9 4.38 12.42 4.35C11.82 4.63 11.36 5.07 11.06 5.67C10.95 6.64 10.9 7.63 10.92 8.62C10.91 9.64 10.95 10.66 11.06 11.67C11.3 12.31 11.76 12.73 12.42 12.93C11.15 12.95 9.9 13 8.67 13.07C7.6 13.02 6.9 12.49 6.56 11.48C6.47 9.51 6.5 7.54 6.65 5.57C6.92 5.02 7.34 4.63 7.92 4.4C8.91 4.27 9.91 4.22 10.92 4.26Z" fill="#A35D54" fill-opacity="1.000000" fill-rule="evenodd"/>
		</g>
		<path id="Vector" d="M12.42 4.35C13.78 4.15 14.7 4.68 15.18 5.95C15.25 7.73 15.25 9.51 15.18 11.29C15.02 12.18 14.5 12.72 13.64 12.93C18.59 12.95 23.53 13 28.45 13.07C21.85 13.07 15.26 13.07 8.67 13.07C9.9 13 11.15 12.95 12.42 12.93C11.76 12.73 11.3 12.31 11.06 11.67C10.95 10.66 10.91 9.64 10.92 8.62C10.9 7.63 10.95 6.64 11.06 5.67C11.36 5.07 11.82 4.63 12.42 4.35Z" fill="#FEDCB9" fill-opacity="1.000000" fill-rule="evenodd"/>
		<path id="Vector" d="M10.92 4.26C16.01 4.25 21.1 4.26 26.2 4.31C27.2 4.32 28.2 4.38 29.2 4.5C29.82 4.81 30.24 5.29 30.46 5.95C30.53 7.76 30.53 9.57 30.46 11.39C30.25 12.2 29.73 12.72 28.92 12.93C32.4 12.95 35.87 13 39.32 13.07C36.48 13.07 33.64 13.07 30.79 13.07C30.01 13.07 29.23 13.07 28.45 13.07C23.53 13 18.59 12.95 13.64 12.93C14.5 12.72 15.02 12.18 15.18 11.29C15.25 9.51 15.25 7.73 15.18 5.95C14.7 4.68 13.78 4.15 12.42 4.35C11.9 4.38 11.4 4.35 10.92 4.26Z" fill="#A35D54" fill-opacity="1.000000" fill-rule="evenodd"/>
		<path id="Vector" d="M13.73 -0.05C18.04 -0.05 22.35 -0.05 26.67 -0.05C27.4 0.17 27.91 0.64 28.21 1.35C28.54 2.72 28.05 3.67 26.76 4.21C30.2 4.26 33.64 4.28 37.07 4.26C37.95 4.25 38.82 4.26 39.7 4.31C40.46 4.51 41.01 4.96 41.34 5.67C41.49 7.57 41.52 9.47 41.43 11.39C41.11 12.43 40.41 12.99 39.32 13.07C35.87 13 32.4 12.95 28.92 12.93C29.73 12.72 30.25 12.2 30.46 11.39C30.53 9.57 30.53 7.76 30.46 5.95C30.24 5.29 29.82 4.81 29.2 4.5C28.2 4.38 27.2 4.32 26.2 4.31C21.1 4.26 16.01 4.25 10.92 4.26C11.48 2.99 12.1 1.76 12.79 0.56C13.09 0.33 13.41 0.13 13.73 -0.05Z" fill="#914C47" fill-opacity="1.000000" fill-rule="evenodd"/>
		<g opacity="0.998000">
			<path id="Vector" d="M8.67 13.07C15.26 13.07 21.85 13.07 28.45 13.07C29.23 13.07 30.01 13.07 30.79 13.07C32.09 13.61 32.61 14.57 32.34 15.98C32.18 17.17 32.04 18.35 31.92 19.54C24.45 19.54 16.98 19.54 9.51 19.54C9.21 17.39 8.93 15.24 8.67 13.07Z" fill="#FEDCB9" fill-opacity="1.000000" fill-rule="evenodd"/>
		</g>
		<path id="Vector" d="M30.79 13.07C33.64 13.07 36.48 13.07 39.32 13.07C39.03 15.23 38.75 17.38 38.48 19.54C36.29 19.54 34.1 19.54 31.92 19.54C32.04 18.35 32.18 17.17 32.34 15.98C32.61 14.57 32.09 13.61 30.79 13.07Z" fill="#F6CBAF" fill-opacity="1.000000" fill-rule="evenodd"/>
		<g opacity="0.997000">
			<path id="Vector" d="M9.51 19.54C16.98 19.54 24.45 19.54 31.92 19.54C34.1 19.54 36.29 19.54 38.48 19.54C35.84 19.64 33.18 19.67 30.51 19.64C29.75 25.41 29.03 31.19 28.35 36.98C31.03 36.95 33.68 36.98 36.32 37.07C34.1 37.07 31.89 37.07 29.67 37.07C23.67 37.07 17.67 37.07 11.67 37.07C11.39 37.07 11.1 37.07 10.82 37.07C10.11 31.23 9.39 25.38 8.67 19.54C8.95 19.54 9.23 19.54 9.51 19.54Z" fill="#EAB477" fill-opacity="1.000000" fill-rule="evenodd"/>
		</g>
		<path id="Vector" d="M38.48 19.54C38.76 19.54 39.04 19.54 39.32 19.54C38.57 25.38 37.85 31.22 37.17 37.07C36.89 37.07 36.6 37.07 36.32 37.07C33.68 36.98 31.03 36.95 28.35 36.98C29.03 31.19 29.75 25.41 30.51 19.64C33.18 19.67 35.84 19.64 38.48 19.54Z" fill="#CC9D69" fill-opacity="1.000000" fill-rule="evenodd"/>
		<g opacity="0.997000">
			<path id="Vector" d="M11.67 37.07C17.67 37.07 23.67 37.07 29.67 37.07C29.32 40.04 28.96 43.01 28.59 45.98C28.39 46.94 27.85 47.6 26.95 47.95C22.76 47.95 18.57 47.95 14.39 47.95C13.74 47.7 13.26 47.26 12.93 46.64C12.46 43.45 12.04 40.27 11.67 37.07Z" fill="#FEDCB9" fill-opacity="1.000000" fill-rule="evenodd"/>
		</g>
		<path id="Vector" d="M29.67 37.07C31.89 37.07 34.1 37.07 36.32 37.07C35.93 40.1 35.53 43.13 35.15 46.17C34.95 47.04 34.43 47.64 33.6 47.95C31.39 47.95 29.17 47.95 26.95 47.95C27.85 47.6 28.39 46.94 28.59 45.98C28.96 43.01 29.32 40.04 29.67 37.07Z" fill="#F6CBAF" fill-opacity="1.000000" fill-rule="evenodd"/>
	</g>
</svg>
