<svg width="36.000000" height="36.000000" viewBox="0 0 36 36" fill="none" xmlns="http://www.w3.org/2000/svg" xmlns:xlink="http://www.w3.org/1999/xlink">
	<desc>
			Created with Pixso.
	</desc>
	<defs>
		<clipPath id="clip36_34959">
			<rect id="coffee-cup 1" rx="0.000000" width="35.000000" height="35.000000" transform="translate(0.500000 0.500000)" fill="white" fill-opacity="0"/>
		</clipPath>
	</defs>
	<rect id="coffee-cup 1" rx="0.000000" width="35.000000" height="35.000000" transform="translate(0.500000 0.500000)" fill="#FFFFFF" fill-opacity="0"/>
	<g clip-path="url(#clip36_34959)">
		<path id="Vector" d="M20 -0.04C21.87 -0.04 23.75 -0.04 25.62 -0.04C25.98 0.07 26.27 0.28 26.5 0.59C26.97 1.44 27.41 2.31 27.8 3.19C25.23 3.21 22.65 3.19 20.07 3.16C21.04 2.75 21.4 2.04 21.16 1.01C20.93 0.48 20.55 0.12 20 -0.04Z" fill="#1E0F13" fill-opacity="1.000000" fill-rule="evenodd"/>
		<g opacity="0.988000">
			<path id="Vector" d="M8.19 3.19C8.55 3.26 8.92 3.29 9.31 3.26C8.86 3.47 8.52 3.8 8.29 4.25C8.21 4.98 8.18 5.72 8.19 6.46C8.18 7.23 8.21 7.99 8.29 8.75C8.48 9.23 8.82 9.55 9.31 9.7C8.36 9.71 7.42 9.75 6.5 9.8C5.7 9.76 5.17 9.37 4.92 8.61C4.85 7.13 4.87 5.65 4.99 4.18C5.19 3.76 5.51 3.47 5.94 3.3C6.68 3.2 7.43 3.17 8.19 3.19Z" fill="#A35D54" fill-opacity="1.000000" fill-rule="evenodd"/>
		</g>
		<path id="Vector" d="M9.31 3.26C10.33 3.11 11.02 3.51 11.39 4.46C11.43 5.8 11.43 7.13 11.39 8.47C11.26 9.13 10.88 9.54 10.23 9.7C13.94 9.71 17.64 9.75 21.33 9.8C16.39 9.8 11.44 9.8 6.5 9.8C7.42 9.75 8.36 9.71 9.31 9.7C8.82 9.55 8.48 9.23 8.29 8.75C8.21 7.99 8.18 7.23 8.19 6.46C8.18 5.72 8.21 4.98 8.29 4.25C8.52 3.8 8.86 3.47 9.31 3.26Z" fill="#FEDCB9" fill-opacity="1.000000" fill-rule="evenodd"/>
		<path id="Vector" d="M8.19 3.19C12.01 3.18 15.83 3.19 19.65 3.23C20.4 3.24 21.15 3.28 21.9 3.37C22.36 3.6 22.68 3.97 22.85 4.46C22.89 5.82 22.89 7.18 22.85 8.54C22.69 9.15 22.3 9.54 21.69 9.7C24.3 9.71 26.9 9.75 29.49 9.8C27.36 9.8 25.23 9.8 23.09 9.8C22.51 9.8 21.92 9.8 21.33 9.8C17.64 9.75 13.94 9.71 10.23 9.7C10.88 9.54 11.26 9.13 11.39 8.47C11.43 7.13 11.43 5.8 11.39 4.46C11.02 3.51 10.33 3.11 9.31 3.26C8.92 3.29 8.55 3.26 8.19 3.19Z" fill="#A35D54" fill-opacity="1.000000" fill-rule="evenodd"/>
		<path id="Vector" d="M10.3 -0.04C13.53 -0.04 16.76 -0.04 20 -0.04C20.55 0.12 20.93 0.48 21.16 1.01C21.4 2.04 21.04 2.75 20.07 3.16C22.65 3.19 25.23 3.21 27.8 3.19C28.46 3.18 29.12 3.19 29.77 3.23C30.34 3.38 30.75 3.72 31 4.25C31.12 5.67 31.14 7.1 31.07 8.54C30.83 9.32 30.31 9.74 29.49 9.8C26.9 9.75 24.3 9.71 21.69 9.7C22.3 9.54 22.69 9.15 22.85 8.54C22.89 7.18 22.89 5.82 22.85 4.46C22.68 3.97 22.36 3.6 21.9 3.37C21.15 3.28 20.4 3.24 19.65 3.23C15.83 3.19 12.01 3.18 8.19 3.19C8.61 2.24 9.08 1.32 9.59 0.42C9.82 0.25 10.05 0.09 10.3 -0.04Z" fill="#914C47" fill-opacity="1.000000" fill-rule="evenodd"/>
		<g opacity="0.998000">
			<path id="Vector" d="M6.5 9.8C11.44 9.8 16.39 9.8 21.33 9.8C21.92 9.8 22.51 9.8 23.09 9.8C24.07 10.2 24.45 10.93 24.25 11.98C24.14 12.87 24.03 13.76 23.94 14.66C18.33 14.66 12.73 14.66 7.13 14.66C6.9 13.04 6.69 11.43 6.5 9.8Z" fill="#FEDCB9" fill-opacity="1.000000" fill-rule="evenodd"/>
		</g>
		<path id="Vector" d="M23.09 9.8C25.23 9.8 27.36 9.8 29.49 9.8C29.27 11.42 29.06 13.04 28.86 14.66C27.22 14.66 25.58 14.66 23.94 14.66C24.03 13.76 24.14 12.87 24.25 11.98C24.45 10.93 24.07 10.2 23.09 9.8Z" fill="#F6CBAF" fill-opacity="1.000000" fill-rule="evenodd"/>
		<g opacity="0.997000">
			<path id="Vector" d="M7.13 14.66C12.73 14.66 18.33 14.66 23.94 14.66C25.58 14.66 27.22 14.66 28.86 14.66C26.88 14.73 24.89 14.75 22.88 14.73C22.31 19.06 21.77 23.39 21.26 27.73C23.27 27.71 25.26 27.73 27.24 27.8C25.58 27.8 23.91 27.8 22.25 27.8C17.75 27.8 13.25 27.8 8.75 27.8C8.54 27.8 8.33 27.8 8.12 27.8C7.58 23.42 7.04 19.04 6.5 14.66C6.71 14.66 6.92 14.66 7.13 14.66Z" fill="#EAB477" fill-opacity="1.000000" fill-rule="evenodd"/>
		</g>
		<path id="Vector" d="M28.86 14.66C29.07 14.66 29.28 14.66 29.49 14.66C28.92 19.03 28.38 23.42 27.87 27.8C27.66 27.8 27.45 27.8 27.24 27.8C25.26 27.73 23.27 27.71 21.26 27.73C21.77 23.39 22.31 19.06 22.88 14.73C24.89 14.75 26.88 14.73 28.86 14.66Z" fill="#CC9D69" fill-opacity="1.000000" fill-rule="evenodd"/>
		<g opacity="0.997000">
			<path id="Vector" d="M8.75 27.8C13.25 27.8 17.75 27.8 22.25 27.8C21.99 30.03 21.72 32.26 21.44 34.48C21.29 35.2 20.88 35.7 20.21 35.96C17.07 35.96 13.93 35.96 10.79 35.96C10.31 35.77 9.94 35.44 9.7 34.98C9.35 32.59 9.03 30.2 8.75 27.8Z" fill="#FEDCB9" fill-opacity="1.000000" fill-rule="evenodd"/>
		</g>
		<path id="Vector" d="M22.25 27.8C23.91 27.8 25.58 27.8 27.24 27.8C26.94 30.07 26.65 32.35 26.36 34.62C26.21 35.28 25.82 35.73 25.2 35.96C23.54 35.96 21.87 35.96 20.21 35.96C20.88 35.7 21.29 35.2 21.44 34.48C21.72 32.26 21.99 30.03 22.25 27.8Z" fill="#F6CBAF" fill-opacity="1.000000" fill-rule="evenodd"/>
	</g>
</svg>
